<svg xmlns="http://www.w3.org/2000/svg" viewBox="0 0 64 64" role="img" aria-label="Billdex favicon">
  <defs>
    <linearGradient id="bg" x1="0" y1="0" x2="1" y2="1">
      <stop offset="0%" stop-color="#2563eb"/>
      <stop offset="100%" stop-color="#1d4ed8"/>
    </linearGradient>
  </defs>
  <rect x="4" y="4" width="56" height="56" rx="14" fill="url(#bg)"/>
  <path d="M22 16h13c8 0 13 4 13 11 0 5-3 8-7 9 5 1 8 4 8 10 0 8-6 12-15 12H22z" fill="#ffffff"/>
  <path d="M30 25h4c3 0 5-1 5-4s-2-4-5-4h-4zM30 44h5c4 0 6-2 6-5s-2-5-6-5h-5z" fill="#1e40af"/>
</svg>
